<?xml version="1.0" standalone="no"?>
<!DOCTYPE svg PUBLIC "-//W3C//DTD SVG 20010904//EN"
 "http://www.w3.org/TR/2001/REC-SVG-20010904/DTD/svg10.dtd">
<svg version="1.0" xmlns="http://www.w3.org/2000/svg"
 width="275.000000pt" height="252.000000pt" viewBox="0 0 275.000000 252.000000"
 preserveAspectRatio="xMidYMid meet">
<metadata>
Created by potrace 1.16, written by Peter Selinger 2001-2019
</metadata>
<g transform="translate(0.000000,252.000000) scale(0.100000,-0.100000)"
fill="#000000" stroke="none">
<path d="M2047 1440 c-9 -25 -17 -53 -17 -62 0 -9 -4 -19 -9 -22 -5 -3 -12
-27 -16 -52 -9 -60 -34 -114 -54 -115 -9 0 5 -6 32 -13 26 -7 55 -20 65 -29
10 -10 22 -17 25 -17 9 0 7 285 -2 325 l-6 30 -18 -45z"/>
</g>
</svg>
